<?xml version="1.0" encoding="utf-8" ?>
<svg xmlns="http://www.w3.org/2000/svg" xmlns:xlink="http://www.w3.org/1999/xlink" width="1024" height="1024">
	<path fill="#FECA05" transform="scale(2 2)" d="M255.276 103.243C215.737 103.684 182.959 119.666 148.003 137.209C109.547 156.508 111.711 161.919 92.3347 200.608C87.3867 210.488 57.7935 268.577 56.6588 277.197C55.3941 278.45 53.7509 278.903 52.1096 279.469C48.5283 277.787 48.4261 276.244 49.6995 272.675C53.797 261.193 58.852 250.118 63.5674 238.894C69.5695 224.608 94.7017 163.291 104.103 153.334C116.677 140.016 150.509 125.099 169.217 117.517C194.369 107.325 228.04 93.4317 255.276 103.243Z"/>
	<path transform="scale(2 2)" d="M56.6588 277.197C57.7935 268.577 87.3867 210.488 92.3347 200.608C111.711 161.919 109.547 156.508 148.003 137.209C182.959 119.666 215.737 103.684 255.276 103.243C285.634 107.268 326.536 123.688 353.409 136.857C382.853 151.286 384.488 155.688 400.464 181.4C415.979 206.369 430.558 228.619 448.537 251.82L456.9 262.458C459.376 265.569 462.313 268.592 463.906 272.267C462.907 276.405 461.656 277.837 457.366 277.637C446.401 277.128 433.298 274.764 421.759 273.832C421.394 298.26 421.631 324.48 422.926 348.951L424.784 380.366C425.176 386.534 429.078 400.94 419.52 401.715C391.871 403.956 360.615 403.469 332.434 404.714L229.386 409.586L199.473 410.547C192.885 410.742 186.39 410.893 179.791 410.954L150.235 411.019C132.476 411.042 114.846 410.543 97.0939 409.723C85.2194 409.175 89.3792 391.166 89.06 381.456C88.2068 355.498 86.5536 329.512 83.9138 303.67C83.5318 299.93 83.2791 296.092 82.4694 292.419C82.5147 287.667 81.6303 283.005 81.7852 278.24C76.3356 278.566 71.066 280.059 65.7709 281.311C60.9615 282.439 58.7435 281.786 56.6588 277.197ZM170.283 277.197C174.727 275.975 179.044 274.282 183.422 272.841C215.622 262.235 256.22 262.689 289.528 270.227C310.398 274.95 306.622 274.358 307.079 293.857L308.369 369.5C308.604 378.115 309.137 386.843 308.751 395.461C315.812 395.463 322.844 394.917 329.894 394.612L366.251 393.111C373.93 392.786 381.85 392.118 389.522 392.495C395.468 392.09 401.534 391.685 407.492 391.771C409.994 391.683 412.452 391.673 414.955 391.771C411.975 355.752 411.394 319.153 411.404 283.008C411.41 264.472 410.923 272.059 402.701 255.868C397.909 256.42 392.561 255.853 387.714 255.853C369.436 255.853 350.464 254.337 332.68 254.729C336.11 253.36 343.33 253.026 347.245 252.559C363.156 250.661 381.957 247.882 397.879 248.364C392.616 238.463 384.946 226.844 378.864 217.25C356.719 217.071 334.537 218.499 312.369 218.531L299.06 218.521C296.93 218.513 294.532 218.709 292.435 218.386L292.419 218.097C295.137 216.568 360.738 209.98 374.667 210.375C371.681 204.767 368.121 199.398 364.882 193.925L356.815 180.375C350.454 169.918 337.048 163.556 326.533 157.127L287.565 133.693C249.066 110.856 249.995 109.805 208.644 135.631C195.462 143.864 182.403 152.369 169.479 160.999C144.628 177.595 147.824 173.981 133.494 200.289C130.217 206.307 126.595 212.332 123.65 218.507C138.593 218.468 167.008 217.842 181.224 221.757C173.87 223.991 147.243 224.848 138.665 225.227C132.27 225.51 125.703 225.361 119.351 226.032L112.375 238.653C110.809 241.509 109.086 244.368 107.894 247.406C126.77 247.032 145.373 245.728 164.278 247.406C146.3 253.907 122.389 252.04 103.463 255.394C99.6057 261.806 96.9989 270.811 91.0384 275.244C94.3041 301.969 96.7839 329.143 98.2565 356.025C99.0511 370.531 99.1505 385.087 99.9942 399.587C113.287 399.192 128.461 400.772 142.272 400.738L158.795 400.738C162.629 400.776 166.447 400.616 170.283 400.738C170.329 393.495 169.546 386.097 169.099 378.861L164.553 301.656C164.246 296.723 164.064 291.806 163.618 286.88C163.368 281.307 164.52 278.576 170.283 277.197ZM274.515 278.24C240.81 273.335 212.481 273.635 180.054 284.737C192.009 295.483 204.368 305.77 216.432 316.39C223.143 322.297 230.272 329.728 237.439 334.944C246.922 326.266 256.218 316.244 265.654 307.254C268.709 304.343 271.58 300.948 275.033 298.502C278.92 293.605 287.408 286.462 292.306 282.104C286.488 280.368 280.475 279.355 274.515 278.24ZM290.486 298.502C287.362 301.01 278.129 309.642 276.141 312.709C269.91 316.936 250.249 336.075 244.956 342.612C254.983 350.308 266.8 361.543 276.141 370.469C281.926 375.994 287.884 381.396 293.75 386.841C295.202 388.183 296.678 389.495 298.157 390.807L297.996 340.749C297.912 325.296 295.658 307.26 297.509 292.419C294.663 294.06 292.685 296.078 290.486 298.502ZM213.4 120.519C191.522 127.994 170.423 137.294 149.859 147.828C124.523 160.805 124.512 161.133 111.681 185.409C98.6462 210.067 86.2104 235.097 74.8811 260.588C74.3117 261.869 69.9738 269.419 71.6225 269.84C76.562 268.686 81.4658 267.381 86.375 266.106C97.6233 244.552 109.206 223.226 120.978 201.954L129.644 186.086C140.8 165.554 144.769 165.133 164.41 151.999C180.141 141.48 196.115 131.259 212.35 121.536C212.714 121.319 213.633 120.944 213.603 120.544L213.4 120.519ZM289.182 122.732C306.586 131.429 325.976 144.401 342.435 154.829C360.073 166.005 358.141 162.198 368.603 180.023C372.505 186.672 376.445 193.375 380.466 199.951L410.678 249.183C413.676 254.053 417.103 258.675 419.993 263.605C430.138 263.742 437.172 264.62 446.88 266.106C445.011 263.166 442.623 260.581 440.404 257.902C422.505 236.29 407.687 212.695 392.907 188.926C386.934 179.319 381.278 167.535 372.385 160.29C357.668 148.3 317.444 131.668 298.269 125.47C295.417 124.548 292.168 122.981 289.182 122.732ZM174.283 293.389C174.199 296.592 174.585 299.864 174.819 303.061L178.918 370.169C179.356 377.644 180.287 384.987 180.054 392.495C188.646 385.025 196.521 375.61 204.945 367.608C213.283 359.263 221.44 350.786 229.952 342.612C224.828 337.176 218.778 332.381 213.158 327.462L185.091 302.988C182.351 300.639 176.873 294.998 174.283 293.389ZM237.439 349.944C233.683 353.248 230.195 356.918 226.649 360.447L206.579 380.82C200.233 387.381 193.301 393.771 187.414 400.738C203.755 398.69 221.513 400.962 237.439 398.691C254.329 398.947 272.862 396.011 289.182 397.002C285.401 392.83 240.023 350.91 237.439 349.944Z"/>
	<path fill="#FECA05" transform="scale(2 2)" d="M71.6225 269.84C69.9738 269.419 74.3117 261.869 74.8811 260.588C86.2104 235.097 98.6462 210.067 111.681 185.409C124.512 161.133 124.523 160.805 149.859 147.828C170.423 137.294 191.522 127.994 213.4 120.519L213.603 120.544C213.633 120.944 212.714 121.319 212.35 121.536C196.115 131.259 180.141 141.48 164.41 151.999C144.769 165.133 140.8 165.554 129.644 186.086L120.978 201.954C109.206 223.226 97.6233 244.552 86.375 266.106C81.4658 267.381 76.562 268.686 71.6225 269.84Z"/>
	<path transform="scale(2 2)" d="M212.818 233.621L212.485 233.64C203.751 234.089 204.174 227.379 203.93 220.571L202.179 183.316C201.873 176.867 198.302 159.809 206.648 158.85C216.904 157.672 231.337 158.62 241.979 158.426C251.8 158.247 261.529 157.15 271.375 157.735C273.096 157.377 274.422 157.321 276.141 157.735C280.584 162.178 279.156 170.741 279.427 176.52C279.838 185.311 282.893 221.786 281.592 228.531C280.578 233.785 267.133 232.401 263.301 232.598C246.438 233.466 229.699 233.629 212.818 233.621ZM233.581 169.186C230.393 168.986 227.164 169.202 223.969 169.186C229.743 175.047 235.83 180.632 241.547 186.55C242.69 185.364 243.866 184.196 244.956 182.961C249.025 178.035 253.784 173.581 257.979 168.733C249.909 168.25 241.652 168.75 233.581 169.186ZM219.937 179.248C217.509 176.32 214.642 173.808 212.274 170.816C211.183 186.004 213.943 201.917 213.8 217.25C216.295 214.657 219.371 211.79 221.342 208.816C226.041 204.211 230.087 198.956 234.656 194.212C230.275 188.965 225.04 183.804 219.937 179.248ZM243.964 203.087C243.485 202.436 243.021 201.758 242.513 201.131C237.337 205.449 227.192 217.257 223.005 222.821L222.871 223.002L243.964 223.002C249.659 222.013 255.692 222.949 261.426 221.757C255.138 216.118 249.977 209.062 243.964 203.087ZM268.631 172.464C263.529 177.683 253.037 188.363 249.333 194.212C253.66 198.009 257.605 202.673 261.426 206.987C264.441 210.382 267.363 213.892 270.409 217.25C271.068 210.632 269.559 173.522 268.631 172.464Z"/>
	<path fill="#FECA05" transform="scale(2 2)" d="M223.969 169.186C227.164 169.202 230.393 168.986 233.581 169.186C235.903 174.275 240.759 179.33 244.956 182.961C243.866 184.196 242.69 185.364 241.547 186.55C235.83 180.632 229.743 175.047 223.969 169.186Z"/>
	<path fill="#FECA05" transform="scale(2 2)" d="M212.274 170.816C214.642 173.808 217.509 176.32 219.937 179.248C220.005 183.309 220.502 206.536 221.342 208.816C219.371 211.79 216.295 214.657 213.8 217.25C213.943 201.917 211.183 186.004 212.274 170.816Z"/>
	<path fill="#FECA05" transform="scale(2 2)" d="M242.513 201.131C243.021 201.758 243.485 202.436 243.964 203.087C241.497 209.589 242.24 216.405 243.964 223.002L222.871 223.002L223.005 222.821C227.192 217.257 237.337 205.449 242.513 201.131Z"/>
	<path fill="#FECA05" transform="scale(2 2)" d="M407.492 391.771C401.534 391.685 395.468 392.09 389.522 392.495C390.032 383.834 388.416 374.622 388.181 365.893C387.543 342.29 388.222 305.793 394.22 282.462C400.453 258.217 402.676 299.571 402.895 302.867C404.865 332.431 407.506 362.124 407.492 391.771Z"/>
	<path fill="#FECA05" transform="scale(2 2)" d="M142.272 400.738C142.263 387.908 142.091 375.041 142.411 362.215L143.306 336.408C143.597 326.69 144.317 317.133 145.171 307.456C146.185 295.96 146.291 286.163 157.95 280.09C160.798 278.607 167.209 276.232 170.283 277.197C164.52 278.576 163.368 281.307 163.618 286.88C150.896 295.589 155.236 302.443 155.8 316.6C156.654 338.046 157.919 359.459 158.42 380.917C158.569 387.262 159.654 394.513 158.795 400.738L142.272 400.738Z"/>
	<path fill="#FECA05" transform="scale(2 2)" d="M65.7709 281.311C71.066 280.059 76.3356 278.566 81.7852 278.24C81.6303 283.005 82.5147 287.667 82.4694 292.419C81.9144 295.058 82.3854 298.271 82.4278 300.975C82.6112 312.684 83.0374 399.639 79.7371 405.325C78.714 407.087 75.3049 407.397 73.7454 406.299C70.3459 403.904 71.6172 384.991 71.6178 380.877L71.623 346.773C71.5691 340.647 70.8134 334.416 70.4334 328.292C69.5331 313.783 68.3957 295.629 65.7709 281.311Z"/>
	<path fill="#FECA05" transform="scale(2 2)" d="M274.515 278.24C280.475 279.355 286.488 280.368 292.306 282.104C287.408 286.462 278.92 293.605 275.033 298.502C274.337 292.728 274.08 283.993 274.515 278.24Z"/>
	<path fill="#FECA05" transform="scale(2 2)" d="M276.141 312.709C278.129 309.642 287.362 301.01 290.486 298.502C290.408 319.217 291.869 339.848 292.837 360.534C293.194 368.176 294.605 379.587 293.75 386.841C287.884 381.396 281.926 375.994 276.141 370.469L276.131 321.999C276.118 318.899 275.902 315.805 276.141 312.709Z"/>
</svg>
