<?xml version="1.0" encoding="utf-8" ?>
<svg xmlns="http://www.w3.org/2000/svg" xmlns:xlink="http://www.w3.org/1999/xlink" width="1024" height="1024">
	<path transform="scale(2 2)" d="M175.235 99.6724C184.354 87.8924 193.06 87.9797 207.616 86.4991C218.744 85.8837 233.689 85.3663 240.111 96.2388C258.121 99.5545 270.651 102.573 287.518 111.468C293.838 114.801 292.745 115.163 299.746 115.206C332.218 115.405 337.675 155.463 343.133 179.721C347.737 185.111 363.466 194.109 356.355 202.464C353.281 206.076 343.746 211.747 339.365 214.368C302.931 236.169 259.111 247.807 217.042 251.484C206.38 251.982 195.9 252.751 185.194 252.654C160.134 252.427 78.6575 244.203 68.6714 214.025C65.8735 205.57 78.423 203.896 84.9497 200.425C96.1426 194.472 98.4913 183.22 102.466 172.109C115.633 135.305 138.514 111.599 175.235 99.6724ZM186.283 98.0008C183.137 100.363 180.871 103.238 179.048 106.707C175.856 109.423 173.557 114.75 171.683 118.496C158.875 144.086 142.958 196.25 158.835 223.634C160.798 227.02 163.7 229.689 165.661 232.949C163.099 231.676 161.019 229.478 159.105 227.397C132.804 198.796 148.88 141.686 166.787 113.116C143.845 122.329 125.454 143.211 115.855 165.642C104.438 192.321 109.653 201.637 80.4156 214.011C97.3719 231.534 131.005 237.542 153.985 240.162C202.899 245.737 253.442 240.313 299.266 221.846C311.285 218.632 335.718 204.962 345.294 198.005C336.657 189.052 336.211 188.971 332.288 177.866C328.318 168.658 324.823 158.648 318.957 150.439C311.531 133.943 295.249 133.143 281.147 141.617C263.537 149.057 245.204 170.623 236.042 187.032C233.426 191.716 231.841 196.775 229.361 201.474L229.183 201.807C238.022 171.049 260.224 139.843 291.805 130.155C293.101 129.889 294.404 129.659 295.706 129.425C318.241 128.855 322.419 142.43 332.288 159.223C325.832 132.736 314.409 117.824 286.063 124.698C248.969 133.694 202.853 183.751 218.881 223.135L219.45 224.605L219.144 224.516C207.893 209.444 214.056 184.284 221.685 169.128C233.515 145.626 254.821 127.388 279.752 119.162C264.58 111.553 250.616 105.453 232.948 105.73C203.695 118.538 176.327 180.916 174.777 214.011C174.222 215.575 173.604 217.118 173.051 218.685C173.549 216.123 173.618 213.509 173.983 210.927C174.574 182.683 183.27 152.473 197.165 127.782C199.001 125.834 200.277 122.856 201.956 120.684C209.602 110.797 220.379 99.0908 232.948 96.2388C223.223 91.8005 192.971 91.888 186.283 98.0008Z"/>
	<path fill="#FECA04" transform="scale(2 2)" d="M186.283 98.0008C192.971 91.888 223.223 91.8005 232.948 96.2388C220.379 99.0908 209.602 110.797 201.956 120.684C200.277 122.856 199.001 125.834 197.165 127.782C193.414 129.215 184.262 147.912 182.345 152.19C173.537 171.847 167.394 195.913 166.846 217.48C166.793 219.544 167.078 232.749 166.159 233.334L165.661 232.949C163.7 229.689 160.798 227.02 158.835 223.634C142.958 196.25 158.875 144.086 171.683 118.496C173.557 114.75 175.856 109.423 179.048 106.707C190.485 109.237 206.365 103.602 216.935 98.7208L216.785 98.5103C210.755 97.2172 192.91 97.8969 186.283 98.0008Z"/>
	<path fill="#FECA04" transform="scale(2 2)" d="M290.434 129.425C268.018 134.847 250.944 148.257 238.987 167.876C229.064 184.157 222.832 206.453 229.183 225.069C261.744 219.491 302.15 207.127 326.595 183.504C328.5 181.663 330.264 179.565 332.288 177.866C336.211 188.971 336.657 189.052 345.294 198.005C335.718 204.962 311.285 218.632 299.266 221.846C296.82 221.042 286.979 224.175 283.716 224.763C274.002 226.516 235.706 232.479 226.708 229.496C223.203 228.334 221.785 224.668 218.881 223.135C202.853 183.751 248.969 133.694 286.063 124.698C314.409 117.824 325.832 132.736 332.288 159.223C322.419 142.43 318.241 128.855 295.706 129.425C295.045 127.52 291.643 129 290.434 129.425Z"/>
	<path fill="white" transform="scale(2 2)" d="M290.434 129.425C291.643 129 295.045 127.52 295.706 129.425C294.404 129.659 293.101 129.889 291.805 130.155C291.349 130.021 290.863 130.043 290.442 129.806L290.434 129.425Z"/>
	<path fill="#FED114" transform="scale(2 2)" d="M109.824 200.346C115.805 196.128 121.616 178.132 124.542 171.336C129.989 158.683 141.706 139.477 151.586 129.425C142.42 150.126 133.145 174.113 133.086 197.121C133.074 202.024 135.154 214.808 126.713 214.011L126.541 213.609C124.297 213.319 122.041 213.275 119.806 212.888C120.301 212.428 134.234 213.991 131.237 207.731C129.416 203.785 125.119 205.306 121.465 204.532C117.402 203.672 113.633 201.952 109.824 200.346Z"/>
	<path fill="#FECA04" transform="scale(2 2)" d="M281.147 141.617C295.249 133.143 311.531 133.943 318.957 150.439C307.569 142.687 305.935 139.259 289.827 140.302C286.928 140.489 284.061 141.895 281.147 141.617Z"/>
	<path transform="scale(2 2)" d="M320.644 179.721C316.073 178.105 312.7 166.774 308.844 161.326C306.495 158.007 297.138 150.977 307.396 148.541C312.737 148.978 317.303 156.799 319.637 161.015C323.238 167.519 328.782 175.622 320.644 179.721Z"/>
	<path transform="scale(2 2)" d="M109.057 208.528C104.382 206.137 103.31 200.589 109.824 200.346C113.633 201.952 117.402 203.672 121.465 204.532C125.119 205.306 129.416 203.785 131.237 207.731C129.037 217.214 114.854 210.312 109.057 208.528Z"/>
	<path fill="#FECA04" transform="scale(2 2)" d="M131.237 207.731C134.234 213.991 120.301 212.428 119.806 212.888C122.041 213.275 124.297 213.319 126.541 213.609L126.713 214.011C120.986 214.055 112.915 212.997 109.057 208.528C114.854 210.312 129.037 217.214 131.237 207.731Z"/>
	<path fill="#FED114" transform="scale(2 2)" d="M94.6313 214.011C96.4063 212.725 97.978 211.203 99.6675 209.812C105.167 215.264 113.465 219.241 117.276 223.135C112.973 222.295 98.7954 216.165 94.6313 214.011Z"/>
	<path transform="scale(2 2)" d="M91.9102 215.475C92.7758 214.883 93.6873 214.458 94.6313 214.011C98.7954 216.165 112.973 222.295 117.276 223.135C126.663 227.222 142.652 232.898 153.024 234.285L152.724 234.491L153.209 234.445C152.576 234.139 151.145 234.18 150.389 234.078C131.74 231.58 107.83 224.527 91.9102 215.475Z"/>
	<path transform="scale(2 2)" d="M378.779 236.135C378.241 227.336 381.825 221.731 390.612 219.788C395.559 219.21 399.991 223.449 403.275 226.611C425.54 248.047 455.243 284.498 455.762 315.361C456.186 340.569 443.061 361.555 433.7 384.11C430.288 392.333 424.324 413.793 419.035 419.029C402.658 435.243 349.57 417.415 335.065 403.031C314.672 382.643 349.2 350.917 337.116 326.077C329.485 310.391 306.364 294.618 301.36 276.926C299.446 270.162 302.946 262.517 310.045 260.808C318.287 258.825 324.148 265.47 330.57 269.274L330.897 269.466C323.508 261.042 307.433 239.239 324.972 232.176C332.128 229.295 337.088 235.598 343.133 238.185C341.918 229.774 347.049 221.714 355.842 221.667C363.812 221.624 373.249 230.817 378.779 236.135ZM390.612 230.012C382.63 231.827 391.57 243.763 393.519 247.108C398.872 256.296 408.423 271.118 411.382 281.289C407.261 293.604 399.778 281.658 396.73 276.216C392.178 268.088 365.751 227.042 354.404 231.371C346.178 234.509 359.35 247.452 361.742 250.401C367.836 257.911 387.853 282.157 390.452 288.505C392.2 292.772 388.294 297.1 383.848 294.827C379.78 292.747 373.287 283.067 369.869 279.203C364.805 273.477 336.169 243.237 329.159 241.372C321.728 244.073 330.131 253.524 332.921 257.571C341.966 270.691 352.688 282.288 364.745 292.664C367.596 295.158 371.436 297.509 372.853 301.153C369.973 314.321 352.479 296.449 347.446 292.622C339.766 286.782 331.927 281.216 323.979 275.747C321.997 274.383 311.018 265.197 309.956 272.094C308.802 279.583 326.613 298.852 331.858 304.586C347.119 321.27 352.823 326.434 349.155 349.443C354.703 347.595 359.952 344.967 365.337 342.708L433.407 313.657C437.286 311.977 441.248 310.473 445.061 308.647C442.031 285.412 421.366 259.86 405.845 243.098C403.196 240.236 394.694 229.238 390.612 230.012ZM445.061 319.235L363.454 354.357C357.437 356.95 351.45 359.652 345.294 361.904C344.41 369.474 339.723 381.208 340.47 388.244L340.873 388.45C368.932 376.99 395.879 364.912 423.666 353.107C428.163 351.196 432.943 348.348 437.78 347.644C439.292 343.745 447.273 320.642 445.061 319.235ZM430.797 360.529C411.646 369.117 392.297 377.43 372.985 385.652C363.873 389.532 354.113 392.986 345.294 397.424C348.622 400.161 352.267 402.525 356.102 404.494C367.49 410.362 404.519 423.622 412.285 407.03C418.779 393.154 424.78 375.55 431.011 360.863L430.797 360.529Z"/>
	<path transform="scale(2 2)" d="M65.7587 347.644C60.815 362.626 62.1844 376.336 69.9088 390.111C71.1999 392.413 72.9908 394.355 74.2616 396.626L74.1398 396.749C57.8559 380.336 50.286 361.009 62.1452 339.592C67.1464 330.56 65.8039 334.266 66.9649 324.23C70.4968 293.701 79.6603 288.925 105.798 282.709C130.282 276.886 148.094 274.156 173.051 272.758C200.081 272.348 226.136 276.213 251.99 283.792C257.828 285.504 263.962 286.649 269.239 289.84C286.14 300.062 284.376 314.172 288.286 329.587C290.424 332.217 293.121 334.376 295.183 337.062C311.62 358.462 311.2 380.763 289.614 397.424C292.539 393.783 295.987 390.158 297.512 385.657C300.703 376.233 292.588 354.456 288.286 345.7C288.353 351.641 287.884 361.215 283.082 365.056C274.386 372.013 247.835 371.748 236.925 370.296C219.753 368.011 202.974 358.991 193.734 343.96C190.343 338.444 188.035 332.132 184.089 327.004C174.131 317.137 167.957 326.642 163.376 335.93C150.803 361.42 135.169 370.482 105.37 370.995C95.345 371.168 76.0908 369.04 69.0334 361.951C65.2753 358.176 65.7743 352.551 65.7587 347.644ZM174.777 278.971C159.093 278.851 94.7708 285.516 82.8386 297.265C67.8112 312.062 71.9966 337.797 70.7509 356.704C76.4312 362.589 85.5673 364.116 93.4166 364.266C116.724 364.71 139.201 357.889 150.637 336.543C157.908 322.973 162.123 310.582 180.185 312.817C203.887 318.007 194.165 352.525 242.617 363.424C251.247 365.365 271.179 366.711 278.676 361.746C285.912 356.953 282.831 332.689 281.977 325.58C278.997 300.786 272.385 295.042 250.464 289.161C225.821 282.549 200.402 277.904 174.777 278.971Z"/>
	<path fill="#FECA04" transform="scale(2 2)" d="M345.294 361.904C351.45 359.652 357.437 356.95 363.454 354.357L445.061 319.235C447.273 320.642 439.292 343.745 437.78 347.644C432.943 348.348 428.163 351.196 423.666 353.107C395.879 364.912 368.932 376.99 340.873 388.45L340.47 388.244C339.723 381.208 344.41 369.474 345.294 361.904Z"/>
</svg>
