<?xml version="1.0" encoding="utf-8" ?>
<svg xmlns="http://www.w3.org/2000/svg" xmlns:xlink="http://www.w3.org/1999/xlink" width="1024" height="1024">
	<path transform="scale(2 2)" d="M65.0027 280.126L102.768 144.429C107.712 126.817 110.63 111.583 132.557 108.31C146.866 106.952 156.728 113.818 162.754 126.766C168.57 129.705 174.496 132.415 180.34 135.297L266.604 177.085C282.051 184.553 287.893 186.667 296.908 201.673C298 203.491 298.981 205.385 300.333 207.031C313.337 194.19 379.375 199.329 395.97 201.563C423.657 205.291 421.053 206.978 426.401 231.125L437.229 281.995C445.318 318.698 411.499 301.182 394.072 306.385C391.772 308.828 395.498 308.864 397.041 309.037C411.177 310.624 453.382 314.513 463.75 324.337C483.107 342.677 468.618 383.874 440.925 388.866C432.727 390.344 424.073 389.739 415.788 389.713L264.758 389.861C232.922 390.127 198.443 374.109 179.812 348.192C177.256 344.637 174.908 340.453 171.772 337.415L171.519 337.172C158.251 344.398 149.956 373.456 134.019 367.891C128.368 365.918 113.663 355.392 111.002 349.846C114.426 339.514 129.318 355.782 138.193 358.069C147.031 353.195 152.408 335.914 166.115 328.869C178.402 324.211 181.457 333.679 187.737 341.856C198.235 355.526 213.396 361.665 229.161 367.103C224.293 354.08 224.198 344.092 230.545 331.198C232.011 328.219 233.85 324.343 236.394 322.118C247.765 312.169 279.459 314.49 292.651 309.994C295.294 306.023 287.446 306.973 285.749 306.987C277.967 307.05 269.382 307.733 262.697 302.984C253.883 296.724 255.646 290.854 256.289 281.932C256.888 273.627 259.411 248.423 258.26 241.371C255.04 237.337 249.759 234.732 245.491 231.913L181.194 189.328C169.325 181.608 157.161 174.133 145.601 165.967L113.971 256.226C112.092 261.589 109.625 267.211 108.688 272.821C122.107 288.853 118.913 291.742 114.197 312.677C109.458 333.717 98.8918 374.634 110.912 394.747C111.481 395.699 116.324 398.331 112.871 399.532C110.22 400.454 93.5282 394.123 90.4492 392.603C67.9063 381.475 50.4478 360.889 42.4208 337.135C38.6245 325.901 34.703 306.102 40.1872 295.233C44.6761 286.336 56.0408 283.046 65.0027 280.126ZM137.047 120.182C114.361 114.723 113.169 144.68 109.308 160.629L80.9659 274.457C82.4228 273.962 83.8507 273.471 85.2475 272.821C88.5609 271.413 91.6062 270.341 95.2235 270.154C102.36 250.215 108.406 229.917 115.61 209.994C116.716 206.937 118.083 203.725 118.626 200.511C122.557 190.704 129.495 164.397 134.493 157.096C137.759 145.664 149.093 152.39 155.053 155.349L155.459 155.547C163.579 161.712 172.382 166.983 180.878 172.616L251.328 219.088C260.118 224.901 268.05 229.67 270.888 240.626C274.343 253.889 268.474 276.002 269.912 290.684C271.359 293.112 272.432 293.542 275.081 294.265C277.351 274.912 281.732 255.842 286.693 237.016C287.303 232.993 290.345 223.67 292.257 220.06C281.774 202.054 282.342 199.676 263.658 190.527L174.808 147.684C167.283 143.494 154.349 140.287 150.4 133.191C146.642 126.439 144.486 122.945 137.047 120.182ZM417.308 251.664C417.053 250.577 416.789 249.491 416.55 248.401L416.241 248.548C413.927 249.664 411.776 251.095 409.539 252.354C380.057 268.949 342.44 278.495 309.38 283.847C303.126 284.859 296.763 286.117 290.444 286.537C290.189 287.92 289.945 289.305 289.67 290.684C289.523 291.843 289.646 293.095 289.67 294.265C296.845 294.955 305.138 294.194 312.434 294.054L351.806 293.558C370.167 293.34 388.56 293.298 406.915 292.852C413.135 292.7 419.577 293.182 425.745 292.526C424.601 280.533 419.704 263.946 417.308 251.664ZM102.257 283.492C94.6973 279.495 86.299 285.272 78.6635 288.094L61.6139 294.456C56.9045 296.239 51.9739 297.192 49.5001 302.053C46.46 308.027 47.688 321.626 49.4989 328.062C50.6743 336.904 54.4708 345.843 59.3217 353.3C69.7933 372.857 88.0291 387.104 108.688 394.579C90.276 363.674 102.162 326.898 106.564 293.729C107.079 289.977 105.604 285.489 102.257 283.492ZM348.531 212.084C335.97 211.966 322.659 213.202 310.403 216.013C304.346 222.247 302.378 230.384 300.208 238.479C297.178 249.782 290.584 277.638 292.257 278.558C301.838 278.116 325.547 273.742 335.252 271.022C335.232 252.556 338.067 233.114 346.581 216.488C347.224 215.234 348.664 213.49 348.803 212.161L348.531 212.084ZM359.455 212.084C347.388 228.166 342.627 250.335 342.747 270.154C352.698 265.37 372.051 260.674 384.063 256.1C395.953 251.295 403.717 246.333 414.526 240.626C413.482 235.046 411.458 222.045 408.741 217.652C400.792 214.424 369 211.508 359.455 212.084ZM334.492 319.75C310.041 321.526 289.005 323.126 264.403 327.119C259.073 327.984 252.686 328.585 247.668 330.41C236.223 334.575 231.21 370.757 258.683 375.391C262.797 376.085 267.279 375.686 271.453 375.659L363.187 375.636L428.752 375.643C437.565 375.64 443.937 375.869 450.584 369.166C458.774 360.909 464.273 343.307 454.656 334.047C443.59 323.391 358.769 319.733 334.492 319.75Z"/>
	<path fill="#FECA04" transform="scale(2 2)" d="M137.047 120.182C144.486 122.945 146.642 126.439 150.4 133.191C154.349 140.287 167.283 143.494 174.808 147.684C168.151 153.512 156.338 154.645 155.459 155.547L155.053 155.349C149.093 152.39 137.759 145.664 134.493 157.096C121.601 154.36 113.79 138.069 123.267 131.134C120.341 136.085 121.097 142.383 125.111 146.501C129.125 150.62 135.402 151.537 140.426 148.739C145.451 145.941 147.977 140.122 146.589 134.541C145.202 128.96 140.246 125.001 134.496 124.881C135.438 123.38 136.219 121.749 137.047 120.182Z"/>
	<path transform="scale(2 2)" d="M123.267 131.134C125.607 127.175 129.899 124.785 134.496 124.881C140.246 125.001 145.202 128.96 146.589 134.541C147.977 140.122 145.451 145.941 140.426 148.739C135.402 151.537 129.125 150.62 125.111 146.501C121.097 142.383 120.341 136.085 123.267 131.134ZM132.623 132.397C129.749 133.255 128.1 136.264 128.923 139.148C129.746 142.031 132.736 143.716 135.629 142.927C137.532 142.409 139.008 140.907 139.495 138.996C139.982 137.085 139.404 135.06 137.981 133.695C136.559 132.329 134.512 131.833 132.623 132.397Z"/>
	<path fill="#FECA04" transform="scale(2 2)" d="M85.2475 272.821C87.9953 263.779 92.9389 255.116 96.813 246.487C102.992 232.721 110.486 213.043 118.626 200.511C118.083 203.725 116.716 206.937 115.61 209.994C108.406 229.917 102.36 250.215 95.2235 270.154C91.6062 270.341 88.5609 271.413 85.2475 272.821Z"/>
	<path fill="#FECA04" transform="scale(2 2)" d="M270.888 240.626C275.942 238.767 281.391 237.864 286.693 237.016C281.732 255.842 277.351 274.912 275.081 294.265C272.432 293.542 271.359 293.112 269.912 290.684C268.474 276.002 274.343 253.889 270.888 240.626Z"/>
	<path fill="#FECA04" transform="scale(2 2)" d="M289.67 290.684C297.776 290.51 305.938 289.152 313.971 288.152C349.629 283.715 388.996 275.075 417.308 251.664C419.704 263.946 424.601 280.533 425.745 292.526C419.577 293.182 413.135 292.7 406.915 292.852C388.56 293.298 370.167 293.34 351.806 293.558L312.434 294.054C305.138 294.194 296.845 294.955 289.67 294.265C289.646 293.095 289.523 291.843 289.67 290.684Z"/>
	<path fill="#FECA04" transform="scale(2 2)" d="M49.4989 328.062C52.2019 307.45 42.4189 304.922 66.7421 296.352L82.6598 290.639C89.1734 288.278 95.492 285.068 102.257 283.492C105.604 285.489 107.079 289.977 106.564 293.729L106.15 293.98C99.068 298.237 81.9013 303.767 73.7693 306.663C61.1408 311.16 57.8036 310.902 57.9307 326.064C58.1071 347.103 65.2969 355.197 74.7854 371.254C70.282 367.689 59.6922 353.446 59.3217 353.3C54.4708 345.843 50.6743 336.904 49.4989 328.062Z"/>
	<path fill="#FECA04" transform="scale(2 2)" d="M434.68 372.69C423.216 374.161 412.745 366.021 411.343 354.548C409.942 343.075 418.146 332.654 429.627 331.322C441.01 330.002 451.322 338.12 452.712 349.495C454.101 360.869 446.046 371.231 434.68 372.69Z"/>
	<path fill="#FECA04" transform="scale(2 2)" d="M266.89 371.947C256.267 372.768 246.97 364.867 246.065 354.251C245.161 343.634 252.988 334.275 263.597 333.287C274.325 332.287 283.813 340.221 284.727 350.957C285.642 361.693 277.633 371.118 266.89 371.947Z"/>
</svg>
