<?xml version="1.0" encoding="utf-8" ?>
<svg xmlns="http://www.w3.org/2000/svg" xmlns:xlink="http://www.w3.org/1999/xlink" width="1024" height="1024">
	<path transform="scale(2 2)" d="M175.275 188.457C162.901 194.759 139.771 203.837 125.496 205.827C116.072 207.14 106.432 204.226 100.643 196.468C90.3706 182.7 78.981 163.718 91.5798 147.904C95.0746 143.517 126.108 121.414 131.648 117.744C154.805 102.403 179.692 92.0181 205.434 82.1109C210.906 80.0048 215.219 76.7778 221.209 76.0951C229.126 75.1651 237.325 79.0635 242.297 85.1419C252.441 97.5409 264.03 115.522 253.677 131.039C248.268 139.146 227.126 156.457 218.702 163.365C222.507 167.348 225.913 171.656 229.375 175.935C253.948 206.306 279.603 240.465 296.627 275.567C298.124 278.653 299.426 281.928 301.139 284.893L301.295 285.157C322.219 271.379 330.683 243.419 329.65 219.484C330.975 217.057 332.063 216.306 334.614 215.466C339.128 216.67 342.736 220.21 346.416 222.911C377.803 245.947 400.662 280.974 413.533 317.514C421.264 339.464 432.194 383.169 424.671 405.711C412.995 440.695 365.713 434.021 337.443 429.409C331.838 428.494 325.656 427.902 320.288 426.085C308.561 423.954 297.047 420.93 285.591 417.684C275.224 414.747 195.682 390.396 193.459 382.277C192.253 377.871 198.49 366.623 200.734 362.479C214.918 336.293 236.976 323.217 264.264 315.058C230.159 288.152 211.923 253.804 190.934 217.533C186.027 209.054 177.841 197.497 175.275 188.457ZM205.952 172.011C199.807 175.565 189.946 180.279 184.603 184.042C186.764 192.189 193.485 202.027 197.577 209.827C212.667 204.721 212.047 202.457 222.86 195.242C224.529 193.214 226.326 191.346 228.158 189.469C224.074 185.741 213.801 173.502 210.633 168.681L205.952 172.011ZM228.158 203.884C223.829 207.46 219.425 211.492 214.413 214.063C210.555 216.042 206.301 217.128 202.646 219.484C206.475 224.149 209.113 230.065 212.254 235.23C222.703 230.657 233.664 225.773 240.879 216.573C242.082 215.035 243.237 213.479 244.354 211.877C240.945 207.267 237.277 202.902 233.785 198.364C232.068 200.366 230.1 202.106 228.158 203.884ZM222.86 86.1246C218.117 86.416 214.677 88.7051 210.633 90.9944C213.879 91.8788 217.149 93.1589 219.769 95.3221C224.118 98.9137 238.016 121.619 239.171 129.062C239.174 129.824 239.329 130.921 239.171 131.643C244.906 126.472 249.972 120.21 247.046 112.121C243.741 102.987 234.581 85.9221 222.86 86.1246ZM204.17 100.091C186.973 102.419 146.679 126.242 132.669 135.681C125.034 140.824 115.117 146.633 116.662 157.485C117.237 161.523 129.392 181.011 132.707 183.521C135.508 185.642 138.882 186.304 142.312 186.253C163.993 185.974 204.367 162.715 218.652 148.041C224.199 142.342 231.151 133.798 227.768 125.333C224.736 117.747 215.013 98.1195 204.17 100.091ZM107.614 148.231C91.7319 157.344 93.6709 165.148 101.97 179.446C106.634 187.481 107.96 193.575 118.046 195.242C121.714 194.909 125.362 193.913 128.803 192.611C120.735 185.922 112.624 173.346 108.679 164.052C106.396 158.672 108.246 148.823 107.614 148.231ZM250.648 220.692C240.695 232.337 231.8 238.44 217.641 244.025C226.927 261.67 257.185 298.469 273.622 309.925C284.556 318.11 300.214 327.26 296.442 304.824C293.346 286.416 265.421 235.924 250.648 220.692ZM339.296 229.868C339.048 257.191 324.985 279.121 304.152 295.268C310.11 313.631 305.423 336.695 281.068 326.196C278.916 325.268 276.82 324.13 274.568 323.465C270.569 323.588 266.857 324.659 263.037 325.755C236.675 333.318 214.315 352.518 204.17 378.202C246.758 382.044 279.44 394.34 319.07 405.925C299.096 391.537 301.349 380.977 289.724 367.425C283.45 360.672 278.506 360.106 270.025 360.249L270.247 359.962C275.536 353.197 285.903 354.175 292.066 359.117C300.695 366.037 303.607 377.891 310.486 386.334C327.442 407.147 373.803 419.566 398.163 416.957C425.884 413.989 417.384 371.848 413.333 352.437C404.191 308.631 381.114 262.179 345.277 233.923C343.411 232.451 341.426 230.942 339.296 229.868Z"/>
	<path fill="#FECA04" transform="scale(2 2)" d="M184.603 184.042C189.946 180.279 199.807 175.565 205.952 172.011C210.282 177.7 219.689 189.341 222.86 195.242C212.047 202.457 212.667 204.721 197.577 209.827C193.485 202.027 186.764 192.189 184.603 184.042Z"/>
	<path fill="#FECA04" transform="scale(2 2)" d="M202.646 219.484C206.301 217.128 210.555 216.042 214.413 214.063C219.425 211.492 223.829 207.46 228.158 203.884C231.479 208.444 235.319 214.768 240.879 216.573C233.664 225.773 222.703 230.657 212.254 235.23C209.113 230.065 206.475 224.149 202.646 219.484Z"/>
	<path fill="#FECA04" transform="scale(2 2)" d="M330.677 281.187C334.336 276.656 338.804 273.001 342.042 268.075C343.415 265.986 346.935 255.929 349.367 255.831C357.305 255.512 380.879 295.413 384.085 301.719C390.846 315.019 423.853 397.408 403.464 405.686L403.098 405.838C403.024 405.868 402.95 405.896 402.876 405.925C394.085 403.316 382.754 395.554 376.539 388.931C360.962 372.334 356.584 329.333 338.923 312.366C330.779 304.543 314.336 307.569 311.829 302.571C308.352 295.639 336.131 288.044 352.671 305.592C367.512 321.337 375.25 343.356 387.22 361.153C389.474 364.504 392.367 369.694 396.726 370.526C397.313 371.654 397.788 372.825 398.276 373.997C397.931 369.502 398.335 365.228 397.468 360.729C391.812 331.386 370 273.119 330.677 281.187Z"/>
	<path transform="scale(2 2)" d="M325.082 285.157C326.873 283.678 328.67 282.361 330.677 281.187C370 273.119 391.812 331.386 397.468 360.729C398.335 365.228 397.931 369.502 398.276 373.997C397.788 372.825 397.313 371.654 396.726 370.526C386.554 343.183 364.566 277.436 325.082 285.157Z"/>
	<path transform="scale(2 2)" d="M312.687 323.465C314.814 320.658 316.924 318.928 320.288 317.757C337.694 317.063 345.149 340.569 350.426 353.469C352.232 357.884 364.571 388.098 362.514 391.645L362.029 391.512C361.017 390.611 360.43 389.426 359.777 388.26C351.935 374.033 337.735 336.064 327.264 327.295C322.812 323.567 318.295 322.933 312.687 323.465Z"/>
</svg>
