<?xml version="1.0" encoding="utf-8" ?>
<svg xmlns="http://www.w3.org/2000/svg" xmlns:xlink="http://www.w3.org/1999/xlink" width="1024" height="1024">
	<path transform="scale(2 2)" d="M324.002 151.995C324.205 158.223 324.011 164.504 324.011 170.739L323.94 220.631C323.937 222.975 323.705 225.36 324.002 227.69C323.672 230.177 323.675 232.309 324.002 234.79L318.253 235.879L318.253 230.753C314.46 230.669 310.659 230.883 306.873 230.753C306.815 232.47 306.779 234.162 306.873 235.879C304.763 236.455 302.674 236.89 300.518 237.25C300.526 234.563 300.557 231.873 300.518 229.186C299.778 220.609 299.49 212.074 299.025 203.483L294.881 123.71C294.464 116.556 293.977 109.386 294.141 102.216C283.24 103.16 272.191 103.093 261.342 104.352C261.636 109.851 262.357 115.33 262.889 120.81L265.245 145.713C266.981 163.107 268.693 179.763 270.725 197.101C271.984 207.851 273.056 225.078 272.404 235.879C272.648 238.268 272.724 240.37 272.404 242.757C271.123 243.3 269.858 243.869 268.505 244.213C268.055 241.936 267.406 239.554 267.181 237.25C263.012 218.757 259.533 195.7 259.661 176.491C256.688 175.429 253.721 174.364 250.786 173.202C242.529 177.004 225.879 192.218 217.288 198.214C221.694 210.579 223.884 247.055 225.382 260.991C224.632 262.44 213.056 274.474 210.813 277.161C219.686 279.505 228.011 282.668 236.569 285.01C263.273 266.829 287.942 250.682 321.777 249.525C346.965 248.665 375.345 256.505 397.401 268.083C403.291 271.175 408.824 274.998 414.748 277.966C415.557 279.117 416.996 279.844 418.24 280.427C423.666 284.857 429.641 288.888 435.288 293.059C443.838 289.592 451.644 282.31 461.394 286.492C469.906 290.143 473.537 300.171 469.684 308.511C461.521 326.182 395.322 374.562 376.177 386.084C312.506 424.404 268.027 427.823 195.669 406.736C162.097 396.953 108.351 384.965 83.5285 418.295C76.2446 428.075 78.7782 415.894 84.8357 408.545C90.0217 403.032 94.7637 398.72 101.579 395.257C152.087 374.809 203.8 402.292 254.801 405.268C306.905 408.308 354.786 384.144 396.27 354.801C415.186 341.42 433.436 327.268 449.769 310.807C464.318 296.146 455.621 298.194 443.39 304.803C407.808 324.028 371.097 339.574 332.21 350.577C323.31 353.095 324.176 351.466 316.891 357.078C294.592 374.252 248.035 353.09 228.22 340.622C225.19 338.716 212.925 331.968 212.805 328.064C212.666 323.507 218.004 326.244 220.179 327.247C237.885 335.414 290.657 359.442 309.47 345.172C312.408 342.943 315.05 339.378 315.497 335.633C316.382 328.209 306.363 328.668 301.597 327.782C274.826 322.805 252.026 305.082 226.604 296.183C165.124 274.663 122.792 291.607 76.1477 330.73C69.6104 335.105 63.7222 340.444 56.3265 343.431C53.3776 344.621 49.546 344.975 47.2457 345.915C43.9322 346.283 41.0034 343.507 44.923 341.255C54.2695 335.887 55.5967 335.076 63.7415 327.137C85.9103 305.529 105.463 288.158 136.331 278.749C140.269 277.549 144.059 275.992 148.253 276.267C148.751 259.332 147.06 250.635 141.21 234.79C116.407 260.872 83.6601 243.394 67.1369 217.738C65.5311 215.245 55.8016 193.492 64.0317 201.094L64.2891 201.336C85.1645 204.492 102.843 184.477 124.326 195.379C133.18 199.872 139.073 207.508 142.148 216.825C142.133 197.731 154.423 186.406 173.138 183.853C184.76 182.267 193.433 182.58 197.91 169.959C208.853 199.969 193.841 233.362 159.401 235.104C156.363 235.258 153.286 234.935 150.251 234.79C155.948 249.963 160.846 254.097 161.794 273.259C173.634 271.393 195.6 272.874 207 276.267L207.412 275.688C210.765 270.902 216.084 266.868 220.754 263.387C216.719 248.246 215.122 233.078 212.928 217.585C212.104 211.761 211.268 202.738 209.475 197.446C216.769 189.928 225.663 183.347 233.843 176.844C244.373 168.472 246.43 163.425 260.352 168.108C258.808 150.556 258.166 135.527 258.047 118.054C258.007 112.139 257.581 106.158 258.041 100.257C261.703 97.9756 290.366 92.4081 295.611 92.3844C305.56 92.3395 305.144 102.546 305.397 109.563L305.914 128.281C307.034 161.186 306.871 193.323 306.873 226.25C306.965 226.261 307.057 226.273 307.15 226.282L307.612 226.327C311.102 226.687 314.737 226.263 318.253 226.25C318.243 207.731 309.43 149.648 317.534 141.74C320.196 139.143 330.707 140.112 334.665 140.133C334.286 132.949 335.339 125.772 335.233 118.593C332.159 122.23 322.089 135.328 320.118 123.867C321.817 117.269 332.257 104.468 338.486 102.753C341.938 103.669 343.397 105.411 345.812 108.013C354.476 117.351 365.672 122.939 377.696 115.375C386.009 110.144 387.417 104.403 389.435 95.4128C386.041 97.2239 382.978 99.6829 380.102 102.216C379.051 101.331 376.264 99.3854 377.101 97.7293C378.121 95.7122 389.672 88.8523 391.877 87.9357C395.1 89.9837 407.126 100.033 402.797 100.75C400.208 101.179 395.784 96.8844 393.75 95.4128C393.889 125.353 365.585 136.133 343.488 117.456C343.27 120.486 343.435 123.507 343.464 126.541L343.488 140.133C365.12 140.037 362.793 142.895 362.777 161.369C362.771 169.634 362.884 177.912 362.763 186.175C370.933 186.803 410.147 197.422 413.782 206.289C415.695 210.957 410.714 256.509 407.438 264.475C410.723 267.971 414.898 271.908 416.975 276.267C416.253 276.541 415.495 276.357 414.748 276.267C414.356 276.137 391.649 254.462 389.11 252.272C387.208 250.631 383.873 248.308 382.309 246.61C389.587 248.918 396.785 255.48 402.729 260.194C401.94 245.11 405.488 225.692 403.754 212.054C397.148 208.029 369.489 198.588 362.763 197.446C362.233 210.248 363.34 222.143 359.755 234.79C355.03 233.19 350.002 235.414 349.257 231.952C349.521 224.641 349.154 217.294 349.271 209.975C349.562 191.894 350.44 170.064 352.306 151.995C342.911 152.729 333.426 151.366 324.002 151.995ZM196.169 182.244C179.116 197.03 149.502 185.847 150.251 222.502C157.191 207.653 167.207 203.283 181.68 198.859L182.34 198.809C180.576 200.103 175.97 201.719 173.747 202.942C164.698 207.919 159.107 216.594 156.155 226.25C169.223 224.483 177.882 221.123 186.183 210.287C191.494 203.355 196.749 191.373 196.349 182.464L196.169 182.244ZM104.401 200.253C92.1736 202.17 79.6538 209.12 66.9253 205.65C77.618 218.44 91.646 235.627 109.687 237.179C117.682 237.867 125.815 236.234 131.86 230.753C128.449 227.665 125.193 224.682 121.1 222.502C111.7 216.672 100.233 214.339 89.2362 214.794C87.3438 214.872 82.9289 215.585 81.4197 215.091C83.326 214.228 86.1548 214.193 88.2516 213.914C104.423 211.769 120.372 212.526 133.818 222.502C131.269 209.427 118.184 197.946 104.401 200.253ZM320.118 261.998C315.349 262.869 310.48 263.128 305.727 264.16C291.932 267.157 260.729 280.565 249.433 290.592C268.805 298.799 280.066 309.131 302.265 313.596C316.505 316.46 329.567 317.265 329.252 336.903C335.509 335.335 341.666 333.387 347.83 331.49C368.359 324.941 405.887 310.901 424.5 298.941C393.127 277.899 359.497 259.406 320.118 261.998Z"/>
	<path fill="#FECA04" transform="scale(2 2)" d="M274.94 121.521C271.371 122.027 269.057 117.641 271.312 114.86C272.961 112.826 279.195 113.086 281.669 112.922C286.686 112.169 286.007 116.762 285.649 120.264C281.993 120.609 278.571 120.74 274.94 121.521Z"/>
	<path fill="#FECA04" transform="scale(2 2)" d="M278.559 138.217C274.351 138.443 267.928 137.001 272.114 131.512C273.323 129.926 277.94 129.995 279.845 129.852C285.894 129.234 286.741 131.227 285.649 137.084C283.321 137.654 280.932 137.909 278.559 138.217Z"/>
	<path fill="#FECA04" transform="scale(2 2)" d="M278.559 155.678C275.206 156.221 266.767 148.082 283.934 146.605C287.531 146.169 288.898 151.001 287.532 153.741C286.247 154.873 280.492 155.235 278.559 155.678Z"/>
	<path fill="#FECA04" transform="scale(2 2)" d="M341.812 168.108C339.974 167.868 336.515 168.123 334.971 167.344C332.764 166.231 333.726 160.461 337.115 159.818C338.8 159.768 340.97 159.491 342.591 159.939C345.595 160.769 345.363 167.007 341.812 168.108Z"/>
	<path fill="#FECA04" transform="scale(2 2)" d="M281.669 174.182C269.079 174.475 276.283 164.23 280.675 163.568C282.908 163.452 286.121 162.797 286.615 165.638C287.771 172.275 287.306 173.831 281.669 174.182Z"/>
	<path fill="#FECA04" transform="scale(2 2)" d="M339.254 185.284C335.613 185.215 328.815 186.297 332.361 180.059C333.217 178.552 334.239 178.006 335.869 177.551C345.237 176.887 347.051 184.683 339.254 185.284Z"/>
	<path fill="#FECA04" transform="scale(2 2)" d="M281.669 190.181C273.636 190.399 274.115 182.249 283.032 181.327C288.282 180.913 291.658 189.437 281.669 190.181Z"/>
	<path fill="#FECA04" transform="scale(2 2)" d="M249.433 242.757C246.408 237.756 242.317 189.869 243.419 187.028C244.059 185.376 246.658 184.022 248.152 183.212C248.911 183.221 249.256 183.218 249.866 183.675C250.816 186.284 253.933 237.856 253.349 239.969C252.77 242.067 251.665 243.496 249.433 242.757Z"/>
	<path fill="#FECA04" transform="scale(2 2)" d="M338.486 200.253C328.178 201.837 331.466 193.48 337.115 193.101C343.45 193.059 342.894 194.359 342.741 200.253C341.307 200.366 339.921 200.32 338.486 200.253Z"/>
	<path fill="#FECA04" transform="scale(2 2)" d="M279.845 206.381C277.714 200.955 280.199 198.106 285.649 198.214C289.12 197.679 293.376 206.649 283.032 206.381C281.978 206.482 280.903 206.409 279.845 206.381Z"/>
	<path fill="#FECA04" transform="scale(2 2)" d="M235.92 250.354C231.123 245.309 230.092 217.693 229.3 209.632C228.805 204.582 226.277 200.995 231.484 198.214C234.621 197.807 234.846 199.058 235.394 201.898C236.55 207.899 238.946 248.934 237.713 250.769C236.925 250.951 236.644 250.681 235.92 250.354Z"/>
	<path fill="#FECA04" transform="scale(2 2)" d="M324.002 227.69C333.727 228.318 340.398 230.535 349.257 231.952C350.002 235.414 355.03 233.19 359.755 234.79C361.844 235.577 363.983 236.238 365.977 237.25C366.333 231.71 367.587 207.618 368.912 204.159C370.594 203.22 373.963 203.894 375.811 204.183C374.907 214.424 373.858 229.609 371.384 239.569C374.167 240.806 380.948 243.977 382.309 246.61C383.873 248.308 387.208 250.631 389.11 252.272C391.649 254.462 414.356 276.137 414.748 276.267C415.495 276.357 416.253 276.541 416.975 276.267C417.25 277.746 417.853 279.001 418.24 280.427C416.996 279.844 415.557 279.117 414.748 277.966C408.824 274.998 403.291 271.175 397.401 268.083C375.345 256.505 346.965 248.665 321.777 249.525C287.942 250.682 263.273 266.829 236.569 285.01C228.011 282.668 219.686 279.505 210.813 277.161C213.056 274.474 224.632 262.44 225.382 260.991C241.757 248.63 247.735 245.71 267.181 237.25C267.406 239.554 268.055 241.936 268.505 244.213C269.858 243.869 271.123 243.3 272.404 242.757C272.724 240.37 272.648 238.268 272.404 235.879C281.56 232.933 290.889 230.015 300.518 229.186C300.557 231.873 300.526 234.563 300.518 237.25C302.674 236.89 304.763 236.455 306.873 235.879C306.779 234.162 306.815 232.47 306.873 230.753C310.659 230.883 314.46 230.669 318.253 230.753L318.253 235.879L324.002 234.79C323.675 232.309 323.672 230.177 324.002 227.69Z"/>
	<path fill="#FECA04" transform="scale(2 2)" d="M385.572 238.6C384.034 238.824 381.594 238.817 380.282 237.928C379.979 236.924 381.23 209.14 383.818 207.002C385.311 207.082 388.099 206.911 389.371 207.684C389.866 209.536 387.12 224.874 386.769 228.295C386.446 231.449 386.762 235.675 385.572 238.6Z"/>
	<path fill="#FECA04" transform="scale(2 2)" d="M337.115 216.044C329.533 214.939 331.695 208.645 338.486 207.819C344.072 208.45 345.909 216.231 337.115 216.044Z"/>
	<path fill="#FECA04" transform="scale(2 2)" d="M393.218 246.61C392.798 241.985 394.076 215.803 396.333 213.195C397.041 212.378 398.318 212.24 399.31 212.054C400.426 212.026 401.084 212.033 401.954 212.801C402.79 215.34 400.812 245.119 396.638 246.61C395.5 246.65 394.356 246.618 393.218 246.61Z"/>
	<path fill="#FECA04" transform="scale(2 2)" d="M47.2457 345.915C49.546 344.975 53.3776 344.621 56.3265 343.431C63.7222 340.444 69.6104 335.105 76.1477 330.73C70.7021 357.456 82.2443 378.28 101.579 395.257C94.7637 398.72 90.0217 403.032 84.8357 408.545C63.1726 395.015 47.1298 371.924 47.2457 345.915Z"/>
</svg>
